<svg xmlns="http://www.w3.org/2000/svg" viewBox="0 0 750 400">
  <style>
    text { font-family: 'Helvetica Neue', Arial, sans-serif; fill: #333; }
  </style>

  <!-- Axis lines -->
  <line x1="60" y1="350" x2="700" y2="350" stroke="#333" stroke-width="2"/>
  <line x1="60" y1="350" x2="60" y2="20" stroke="#333" stroke-width="2"/>

  <!-- Histogram bars (bell-shaped, 15 bars) -->
  <!-- Heights: 5, 15, 35, 65, 110, 165, 230, 260, 240, 215, 140, 80, 40, 20, 8 -->
  <rect x="80" y="345" width="38" height="5" fill="#fff" stroke="#333" stroke-width="1.5"/>
  <rect x="118" y="335" width="38" height="15" fill="#fff" stroke="#333" stroke-width="1.5"/>
  <rect x="156" y="315" width="38" height="35" fill="#fff" stroke="#333" stroke-width="1.5"/>
  <rect x="194" y="285" width="38" height="65" fill="#fff" stroke="#333" stroke-width="1.5"/>
  <rect x="232" y="240" width="38" height="110" fill="#fff" stroke="#333" stroke-width="1.5"/>
  <rect x="270" y="185" width="38" height="165" fill="#fff" stroke="#333" stroke-width="1.5"/>
  <rect x="308" y="120" width="38" height="230" fill="#fff" stroke="#333" stroke-width="1.5"/>
  <rect x="346" y="90" width="38" height="260" fill="#fff" stroke="#333" stroke-width="1.5"/>
  <rect x="384" y="110" width="38" height="240" fill="#fff" stroke="#333" stroke-width="1.5"/>
  <rect x="422" y="135" width="38" height="215" fill="#fff" stroke="#333" stroke-width="1.5"/>
  <rect x="460" y="210" width="38" height="140" fill="#fff" stroke="#333" stroke-width="1.5"/>
  <rect x="498" y="270" width="38" height="80" fill="#fff" stroke="#333" stroke-width="1.5"/>
  <rect x="536" y="310" width="38" height="40" fill="#fff" stroke="#333" stroke-width="1.5"/>
  <rect x="574" y="330" width="38" height="20" fill="#fff" stroke="#333" stroke-width="1.5"/>
  <rect x="612" y="342" width="38" height="8" fill="#fff" stroke="#333" stroke-width="1.5"/>
</svg>