<svg xmlns="http://www.w3.org/2000/svg" viewBox="0 0 900 700" font-family="Arial, Helvetica, sans-serif">
  <style>
    .axis-label { font-size: 16px; font-weight: bold; text-anchor: middle; }
    .tick-label { font-size: 11px; text-anchor: middle; }
    .tick-label-y { font-size: 11px; text-anchor: end; }
    .dot { fill: #E8860C; stroke: #C06000; stroke-width: 0.5; }
    .reg-line { stroke: #3366CC; stroke-width: 1.5; fill: none; }
    .axis-line { stroke: #000; stroke-width: 1.5; fill: none; }
  </style>

  <defs>
    <!-- Common axis template: x from 2-18, y from 2-14 -->
    <!-- Plot area: 300x250, origin at (60,30), x-axis at y=280, y-axis at x=60 -->
  </defs>

  <!-- Helper: each panel maps data x=[2,20] to px=[60,360], data y=[2,14] to py=[260,30] -->
  <!-- px = 60 + (x-2)*16.67,  py = 260 - (y-2)*19.17 -->
  <!-- Regression line: y = 3.00 + 0.50*x => at x=2: y=4, at x=18: y=12 -->
  <!-- line px: x=2 -> 60, x=18 -> 326.7; py: y=4 -> 221.7, y=12 -> 68.3 -->

  <!-- Panel I (top-left) -->
  <g transform="translate(20, 10)">
    <rect x="55" y="25" width="310" height="245" fill="none" stroke="#000" stroke-width="1.5"/>
    <!-- x-axis ticks: 4,6,8,10,12,14,16,18 -->
    <line x1="93" y1="270" x2="93" y2="275" stroke="#000" stroke-width="1"/>
    <text x="93" y="288" class="tick-label">4</text>
    <line x1="127" y1="270" x2="127" y2="275" stroke="#000" stroke-width="1"/>
    <text x="127" y="288" class="tick-label">6</text>
    <line x1="160" y1="270" x2="160" y2="275" stroke="#000" stroke-width="1"/>
    <text x="160" y="288" class="tick-label">8</text>
    <line x1="193" y1="270" x2="193" y2="275" stroke="#000" stroke-width="1"/>
    <text x="193" y="288" class="tick-label">10</text>
    <line x1="227" y1="270" x2="227" y2="275" stroke="#000" stroke-width="1"/>
    <text x="227" y="288" class="tick-label">12</text>
    <line x1="260" y1="270" x2="260" y2="275" stroke="#000" stroke-width="1"/>
    <text x="260" y="288" class="tick-label">14</text>
    <line x1="293" y1="270" x2="293" y2="275" stroke="#000" stroke-width="1"/>
    <text x="293" y="288" class="tick-label">16</text>
    <line x1="327" y1="270" x2="327" y2="275" stroke="#000" stroke-width="1"/>
    <text x="327" y="288" class="tick-label">18</text>
    <!-- y-axis ticks: 4,6,8,10,12 -->
    <line x1="50" y1="222" x2="55" y2="222" stroke="#000" stroke-width="1"/>
    <text x="48" y="226" class="tick-label-y">4</text>
    <line x1="50" y1="183" x2="55" y2="183" stroke="#000" stroke-width="1"/>
    <text x="48" y="187" class="tick-label-y">6</text>
    <line x1="50" y1="145" x2="55" y2="145" stroke="#000" stroke-width="1"/>
    <text x="48" y="149" class="tick-label-y">8</text>
    <line x1="50" y1="106" x2="55" y2="106" stroke="#000" stroke-width="1"/>
    <text x="48" y="110" class="tick-label-y">10</text>
    <line x1="50" y1="68" x2="55" y2="68" stroke="#000" stroke-width="1"/>
    <text x="48" y="72" class="tick-label-y">12</text>
    <!-- Axis labels -->
    <text x="210" y="310" class="axis-label">x<tspan baseline-shift="sub" font-size="12">1</tspan></text>
    <text x="22" y="155" class="axis-label" transform="rotate(-90, 22, 155)">y<tspan baseline-shift="sub" font-size="12">1</tspan></text>
    <!-- Regression line: y=3+0.5x, x=2->y=4, x=19->y=12.5 -->
    <line x1="60" y1="222" x2="348" y2="50" class="reg-line"/>
    <!-- Dataset I points: (10,8.04),(8,6.95),(13,7.58),(9,8.81),(11,8.33),(14,9.96),(6,7.24),(4,4.26),(12,10.84),(7,4.82),(5,5.68) -->
    <circle cx="193" cy="137" r="6" class="dot"/>  <!-- 10,8.04 -->
    <circle cx="160" cy="159" r="6" class="dot"/>  <!-- 8,6.95 -->
    <circle cx="243" cy="146" r="6" class="dot"/>  <!-- 13,7.58 -->
    <circle cx="177" cy="122" r="6" class="dot"/>  <!-- 9,8.81 -->
    <circle cx="210" cy="131" r="6" class="dot"/>  <!-- 11,8.33 -->
    <circle cx="260" cy="100" r="6" class="dot"/>  <!-- 14,9.96 -->
    <circle cx="127" cy="164" r="6" class="dot"/>  <!-- 6,7.24 -->
    <circle cx="93" cy="227" r="6" class="dot"/>   <!-- 4,4.26 -->
    <circle cx="227" cy="83" r="6" class="dot"/>   <!-- 12,10.84 -->
    <circle cx="143" cy="211" r="6" class="dot"/>  <!-- 7,4.82 -->
    <circle cx="110" cy="194" r="6" class="dot"/>  <!-- 5,5.68 -->
  </g>

  <!-- Panel II (top-right) -->
  <g transform="translate(460, 10)">
    <rect x="55" y="25" width="310" height="245" fill="none" stroke="#000" stroke-width="1.5"/>
    <line x1="93" y1="270" x2="93" y2="275" stroke="#000" stroke-width="1"/>
    <text x="93" y="288" class="tick-label">4</text>
    <line x1="127" y1="270" x2="127" y2="275" stroke="#000" stroke-width="1"/>
    <text x="127" y="288" class="tick-label">6</text>
    <line x1="160" y1="270" x2="160" y2="275" stroke="#000" stroke-width="1"/>
    <text x="160" y="288" class="tick-label">8</text>
    <line x1="193" y1="270" x2="193" y2="275" stroke="#000" stroke-width="1"/>
    <text x="193" y="288" class="tick-label">10</text>
    <line x1="227" y1="270" x2="227" y2="275" stroke="#000" stroke-width="1"/>
    <text x="227" y="288" class="tick-label">12</text>
    <line x1="260" y1="270" x2="260" y2="275" stroke="#000" stroke-width="1"/>
    <text x="260" y="288" class="tick-label">14</text>
    <line x1="293" y1="270" x2="293" y2="275" stroke="#000" stroke-width="1"/>
    <text x="293" y="288" class="tick-label">16</text>
    <line x1="327" y1="270" x2="327" y2="275" stroke="#000" stroke-width="1"/>
    <text x="327" y="288" class="tick-label">18</text>
    <line x1="50" y1="222" x2="55" y2="222" stroke="#000" stroke-width="1"/>
    <text x="48" y="226" class="tick-label-y">4</text>
    <line x1="50" y1="183" x2="55" y2="183" stroke="#000" stroke-width="1"/>
    <text x="48" y="187" class="tick-label-y">6</text>
    <line x1="50" y1="145" x2="55" y2="145" stroke="#000" stroke-width="1"/>
    <text x="48" y="149" class="tick-label-y">8</text>
    <line x1="50" y1="106" x2="55" y2="106" stroke="#000" stroke-width="1"/>
    <text x="48" y="110" class="tick-label-y">10</text>
    <line x1="50" y1="68" x2="55" y2="68" stroke="#000" stroke-width="1"/>
    <text x="48" y="72" class="tick-label-y">12</text>
    <text x="210" y="310" class="axis-label">x<tspan baseline-shift="sub" font-size="12">2</tspan></text>
    <text x="22" y="155" class="axis-label" transform="rotate(-90, 22, 155)">y<tspan baseline-shift="sub" font-size="12">2</tspan></text>
    <line x1="60" y1="222" x2="348" y2="50" class="reg-line"/>
    <!-- Dataset II: (10,9.14),(8,8.14),(13,8.74),(9,8.77),(11,9.26),(14,8.10),(6,6.13),(4,3.10),(12,9.13),(7,7.26),(5,4.74) -->
    <circle cx="193" cy="115" r="6" class="dot"/>  <!-- 10,9.14 -->
    <circle cx="160" cy="134" r="6" class="dot"/>  <!-- 8,8.14 -->
    <circle cx="243" cy="122" r="6" class="dot"/>  <!-- 13,8.74 -->
    <circle cx="177" cy="122" r="6" class="dot"/>  <!-- 9,8.77 -->
    <circle cx="210" cy="113" r="6" class="dot"/>  <!-- 11,9.26 -->
    <circle cx="260" cy="134" r="6" class="dot"/>  <!-- 14,8.10 -->
    <circle cx="127" cy="180" r="6" class="dot"/>  <!-- 6,6.13 -->
    <circle cx="93" cy="239" r="6" class="dot"/>   <!-- 4,3.10 -->
    <circle cx="227" cy="115" r="6" class="dot"/>  <!-- 12,9.13 -->
    <circle cx="143" cy="160" r="6" class="dot"/>  <!-- 7,7.26 -->
    <circle cx="110" cy="207" r="6" class="dot"/>  <!-- 5,4.74 -->
  </g>

  <!-- Panel III (bottom-left) -->
  <g transform="translate(20, 360)">
    <rect x="55" y="25" width="310" height="245" fill="none" stroke="#000" stroke-width="1.5"/>
    <line x1="93" y1="270" x2="93" y2="275" stroke="#000" stroke-width="1"/>
    <text x="93" y="288" class="tick-label">4</text>
    <line x1="127" y1="270" x2="127" y2="275" stroke="#000" stroke-width="1"/>
    <text x="127" y="288" class="tick-label">6</text>
    <line x1="160" y1="270" x2="160" y2="275" stroke="#000" stroke-width="1"/>
    <text x="160" y="288" class="tick-label">8</text>
    <line x1="193" y1="270" x2="193" y2="275" stroke="#000" stroke-width="1"/>
    <text x="193" y="288" class="tick-label">10</text>
    <line x1="227" y1="270" x2="227" y2="275" stroke="#000" stroke-width="1"/>
    <text x="227" y="288" class="tick-label">12</text>
    <line x1="260" y1="270" x2="260" y2="275" stroke="#000" stroke-width="1"/>
    <text x="260" y="288" class="tick-label">14</text>
    <line x1="293" y1="270" x2="293" y2="275" stroke="#000" stroke-width="1"/>
    <text x="293" y="288" class="tick-label">16</text>
    <line x1="327" y1="270" x2="327" y2="275" stroke="#000" stroke-width="1"/>
    <text x="327" y="288" class="tick-label">18</text>
    <line x1="50" y1="222" x2="55" y2="222" stroke="#000" stroke-width="1"/>
    <text x="48" y="226" class="tick-label-y">4</text>
    <line x1="50" y1="183" x2="55" y2="183" stroke="#000" stroke-width="1"/>
    <text x="48" y="187" class="tick-label-y">6</text>
    <line x1="50" y1="145" x2="55" y2="145" stroke="#000" stroke-width="1"/>
    <text x="48" y="149" class="tick-label-y">8</text>
    <line x1="50" y1="106" x2="55" y2="106" stroke="#000" stroke-width="1"/>
    <text x="48" y="110" class="tick-label-y">10</text>
    <line x1="50" y1="68" x2="55" y2="68" stroke="#000" stroke-width="1"/>
    <text x="48" y="72" class="tick-label-y">12</text>
    <text x="210" y="310" class="axis-label">x<tspan baseline-shift="sub" font-size="12">3</tspan></text>
    <text x="22" y="155" class="axis-label" transform="rotate(-90, 22, 155)">y<tspan baseline-shift="sub" font-size="12">3</tspan></text>
    <line x1="60" y1="222" x2="348" y2="50" class="reg-line"/>
    <!-- Dataset III: (10,7.46),(8,6.77),(13,12.74),(9,7.11),(11,7.81),(14,8.84),(6,6.08),(4,5.39),(12,8.15),(7,6.42),(5,5.73) -->
    <circle cx="193" cy="148" r="6" class="dot"/>  <!-- 10,7.46 -->
    <circle cx="160" cy="162" r="6" class="dot"/>  <!-- 8,6.77 -->
    <circle cx="243" cy="44" r="6" class="dot"/>   <!-- 13,12.74 -->
    <circle cx="177" cy="155" r="6" class="dot"/>  <!-- 9,7.11 -->
    <circle cx="210" cy="141" r="6" class="dot"/>  <!-- 11,7.81 -->
    <circle cx="260" cy="121" r="6" class="dot"/>  <!-- 14,8.84 -->
    <circle cx="127" cy="175" r="6" class="dot"/>  <!-- 6,6.08 -->
    <circle cx="93" cy="189" r="6" class="dot"/>   <!-- 4,5.39 -->
    <circle cx="227" cy="134" r="6" class="dot"/>  <!-- 12,8.15 -->
    <circle cx="143" cy="169" r="6" class="dot"/>  <!-- 7,6.42 -->
    <circle cx="110" cy="183" r="6" class="dot"/>  <!-- 5,5.73 -->
  </g>

  <!-- Panel IV (bottom-right) -->
  <g transform="translate(460, 360)">
    <rect x="55" y="25" width="310" height="245" fill="none" stroke="#000" stroke-width="1.5"/>
    <line x1="93" y1="270" x2="93" y2="275" stroke="#000" stroke-width="1"/>
    <text x="93" y="288" class="tick-label">4</text>
    <line x1="127" y1="270" x2="127" y2="275" stroke="#000" stroke-width="1"/>
    <text x="127" y="288" class="tick-label">6</text>
    <line x1="160" y1="270" x2="160" y2="275" stroke="#000" stroke-width="1"/>
    <text x="160" y="288" class="tick-label">8</text>
    <line x1="193" y1="270" x2="193" y2="275" stroke="#000" stroke-width="1"/>
    <text x="193" y="288" class="tick-label">10</text>
    <line x1="227" y1="270" x2="227" y2="275" stroke="#000" stroke-width="1"/>
    <text x="227" y="288" class="tick-label">12</text>
    <line x1="260" y1="270" x2="260" y2="275" stroke="#000" stroke-width="1"/>
    <text x="260" y="288" class="tick-label">14</text>
    <line x1="293" y1="270" x2="293" y2="275" stroke="#000" stroke-width="1"/>
    <text x="293" y="288" class="tick-label">16</text>
    <line x1="327" y1="270" x2="327" y2="275" stroke="#000" stroke-width="1"/>
    <text x="327" y="288" class="tick-label">18</text>
    <line x1="50" y1="222" x2="55" y2="222" stroke="#000" stroke-width="1"/>
    <text x="48" y="226" class="tick-label-y">4</text>
    <line x1="50" y1="183" x2="55" y2="183" stroke="#000" stroke-width="1"/>
    <text x="48" y="187" class="tick-label-y">6</text>
    <line x1="50" y1="145" x2="55" y2="145" stroke="#000" stroke-width="1"/>
    <text x="48" y="149" class="tick-label-y">8</text>
    <line x1="50" y1="106" x2="55" y2="106" stroke="#000" stroke-width="1"/>
    <text x="48" y="110" class="tick-label-y">10</text>
    <line x1="50" y1="68" x2="55" y2="68" stroke="#000" stroke-width="1"/>
    <text x="48" y="72" class="tick-label-y">12</text>
    <text x="210" y="310" class="axis-label">x<tspan baseline-shift="sub" font-size="12">4</tspan></text>
    <text x="22" y="155" class="axis-label" transform="rotate(-90, 22, 155)">y<tspan baseline-shift="sub" font-size="12">4</tspan></text>
    <line x1="60" y1="222" x2="348" y2="50" class="reg-line"/>
    <!-- Dataset IV: (8,6.58),(8,5.76),(8,7.71),(8,8.84),(8,8.47),(8,7.04),(8,5.25),(19,12.50),(8,5.56),(8,7.91),(8,6.89) -->
    <circle cx="160" cy="168" r="6" class="dot"/>  <!-- 8,6.58 -->
    <circle cx="160" cy="184" r="6" class="dot"/>  <!-- 8,5.76 -->
    <circle cx="160" cy="146" r="6" class="dot"/>  <!-- 8,7.71 -->
    <circle cx="160" cy="124" r="6" class="dot"/>  <!-- 8,8.84 -->
    <circle cx="160" cy="131" r="6" class="dot"/>  <!-- 8,8.47 -->
    <circle cx="160" cy="158" r="6" class="dot"/>  <!-- 8,7.04 -->
    <circle cx="160" cy="194" r="6" class="dot"/>  <!-- 8,5.25 -->
    <circle cx="343" cy="62" r="6" class="dot"/>   <!-- 19,12.50 -->
    <circle cx="160" cy="190" r="6" class="dot"/>  <!-- 8,5.56 -->
    <circle cx="160" cy="142" r="6" class="dot"/>  <!-- 8,7.91 -->
    <circle cx="160" cy="164" r="6" class="dot"/>  <!-- 8,6.89 -->
  </g>
</svg>