<svg xmlns="http://www.w3.org/2000/svg" viewBox="0 0 860 420" font-family="Arial, sans-serif">
  <rect width="860" height="420" fill="#fafafa" rx="10"/>
  
  <text x="430" y="30" text-anchor="middle" font-size="18" font-weight="bold" fill="#1a5c2a">Confusion Matrix &amp; Performance Metrics</text>
  
  <!-- Confusion Matrix -->
  <rect x="30" y="50" width="380" height="340" rx="8" fill="white" stroke="#ddd" stroke-width="1"/>
  
  <!-- Headers -->
  <text x="220" y="78" text-anchor="middle" font-size="13" font-weight="bold" fill="#333">Predicted</text>
  <text x="168" y="100" text-anchor="middle" font-size="11" fill="#555">Positive</text>
  <text x="288" y="100" text-anchor="middle" font-size="11" fill="#555">Negative</text>
  
  <text x="70" y="165" text-anchor="middle" font-size="12" font-weight="bold" fill="#333" transform="rotate(-90, 55, 190)">Actual</text>
  <text x="88" y="168" text-anchor="middle" font-size="11" fill="#555">Pos</text>
  <text x="88" y="258" text-anchor="middle" font-size="11" fill="#555">Neg</text>
  
  <!-- TP cell -->
  <rect x="110" y="115" width="115" height="90" rx="6" fill="#c8e6c9" stroke="#2e7d32" stroke-width="2"/>
  <text x="168" y="155" text-anchor="middle" font-size="14" font-weight="bold" fill="#2e7d32">TP</text>
  <text x="168" y="175" text-anchor="middle" font-size="9" fill="#2e7d32">True Positive</text>
  <text x="168" y="192" text-anchor="middle" font-size="8" fill="#555">Correctly predicted failure</text>
  
  <!-- FN cell -->
  <rect x="230" y="115" width="115" height="90" rx="6" fill="#ffcdd2" stroke="#c62828" stroke-width="2"/>
  <text x="288" y="155" text-anchor="middle" font-size="14" font-weight="bold" fill="#c62828">FN</text>
  <text x="288" y="175" text-anchor="middle" font-size="9" fill="#c62828">False Negative</text>
  <text x="288" y="192" text-anchor="middle" font-size="8" fill="#555">Missed a real failure</text>
  
  <!-- FP cell -->
  <rect x="110" y="210" width="115" height="90" rx="6" fill="#fff3e0" stroke="#e65100" stroke-width="2"/>
  <text x="168" y="250" text-anchor="middle" font-size="14" font-weight="bold" fill="#e65100">FP</text>
  <text x="168" y="270" text-anchor="middle" font-size="9" fill="#e65100">False Positive</text>
  <text x="168" y="287" text-anchor="middle" font-size="8" fill="#555">False alarm</text>
  
  <!-- TN cell -->
  <rect x="230" y="210" width="115" height="90" rx="6" fill="#c8e6c9" stroke="#2e7d32" stroke-width="2"/>
  <text x="288" y="250" text-anchor="middle" font-size="14" font-weight="bold" fill="#2e7d32">TN</text>
  <text x="288" y="270" text-anchor="middle" font-size="9" fill="#2e7d32">True Negative</text>
  <text x="288" y="287" text-anchor="middle" font-size="8" fill="#555">Correctly predicted safe</text>
  
  <!-- Row/Column annotations -->
  <line x1="350" y1="115" x2="395" y2="115" stroke="#999" stroke-width="1"/>
  <line x1="350" y1="205" x2="395" y2="205" stroke="#999" stroke-width="1"/>
  <line x1="350" y1="160" x2="395" y2="160" stroke="#999" stroke-width="1" stroke-dasharray="3,3"/>
  <text x="370" y="150" text-anchor="middle" font-size="9" fill="#1565c0">Recall =</text>
  <text x="370" y="165" text-anchor="middle" font-size="9" fill="#1565c0">TP/(TP+FN)</text>
  
  <!-- Metrics Panel -->
  <rect x="430" y="50" width="400" height="340" rx="8" fill="white" stroke="#ddd" stroke-width="1"/>
  <text x="630" y="78" text-anchor="middle" font-size="14" font-weight="bold" fill="#333">Key Metrics</text>
  
  <!-- Accuracy -->
  <rect x="445" y="92" width="370" height="48" rx="5" fill="#e8f5e9"/>
  <text x="460" y="112" font-size="12" font-weight="bold" fill="#2e7d32">Accuracy</text>
  <text x="460" y="130" font-size="11" fill="#555">(TP + TN) / Total — overall correctness</text>
  
  <!-- Precision -->
  <rect x="445" y="148" width="370" height="48" rx="5" fill="#e3f2fd"/>
  <text x="460" y="168" font-size="12" font-weight="bold" fill="#1565c0">Precision</text>
  <text x="460" y="186" font-size="11" fill="#555">TP / (TP + FP) — when we say "fail", how often right?</text>
  
  <!-- Recall / Sensitivity -->
  <rect x="445" y="204" width="370" height="48" rx="5" fill="#fff3e0"/>
  <text x="460" y="224" font-size="12" font-weight="bold" fill="#e65100">Recall (Sensitivity)</text>
  <text x="460" y="242" font-size="11" fill="#555">TP / (TP + FN) — of all real failures, how many caught?</text>
  
  <!-- Specificity -->
  <rect x="445" y="260" width="370" height="48" rx="5" fill="#f3e5f5"/>
  <text x="460" y="280" font-size="12" font-weight="bold" fill="#6a1b9a">Specificity</text>
  <text x="460" y="298" font-size="11" fill="#555">TN / (TN + FP) — of all safe, how many correctly ID'd?</text>
  
  <!-- F1 Score -->
  <rect x="445" y="316" width="370" height="55" rx="5" fill="#fce4ec"/>
  <text x="460" y="336" font-size="12" font-weight="bold" fill="#c62828">F1 Score</text>
  <text x="460" y="354" font-size="11" fill="#555">2 · (Precision × Recall) / (Precision + Recall)</text>
  <text x="460" y="367" font-size="10" fill="#888">Harmonic mean — balances precision and recall</text>
</svg>
