<?xml version="1.0" encoding="UTF-8"?>
<svg id="Layer_1" xmlns="http://www.w3.org/2000/svg" version="1.1" viewBox="0 0 960 480">
  <!-- Generator: Adobe Illustrator 30.2.1, SVG Export Plug-In . SVG Version: 2.1.1 Build 1)  -->
  <defs>
    <style>
      .st0, .st1 {
        fill: #fc8d62;
      }

      .st2 {
        stroke-width: 2.5px;
      }

      .st2, .st3, .st4, .st5, .st6, .st7, .st8, .st9, .st10, .st11, .st12, .st13, .st14, .st15, .st16, .st17, .st18 {
        fill: none;
      }

      .st2, .st15 {
        stroke: #333;
      }

      .st3, .st4, .st19, .st5, .st20, .st7, .st8, .st21, .st9, .st22, .st10, .st11, .st23, .st24, .st25, .st26, .st12, .st13, .st27, .st28, .st29, .st30, .st17, .st18 {
        isolation: isolate;
      }

      .st3, .st7, .st8, .st9, .st11, .st14, .st16, .st17 {
        stroke-width: 1.5px;
      }

      .st3, .st7, .st8, .st9, .st11, .st17 {
        opacity: .5;
      }

      .st3, .st18 {
        stroke: #ffd92f;
      }

      .st4, .st5, .st10, .st12, .st13, .st18 {
        opacity: .7;
        stroke-width: 1.8px;
      }

      .st4, .st17 {
        stroke: #a6d854;
      }

      .st19, .st21, .st28, .st30 {
        font-family: Helvetica-Bold, Helvetica;
        font-weight: 700;
      }

      .st19, .st22, .st30 {
        font-size: 10px;
      }

      .st19, .st28, .st29 {
        fill: #d32f2f;
      }

      .st1, .st31, .st32, .st33, .st34, .st35 {
        stroke: #fff;
        stroke-width: .8px;
      }

      .st5, .st11 {
        stroke: #8da0cb;
      }

      .st36, .st31 {
        fill: #66c2a5;
      }

      .st37 {
        fill: #fafafa;
        stroke: #ccc;
      }

      .st20 {
        font-size: 11px;
      }

      .st20, .st22, .st23, .st24, .st27, .st29 {
        font-family: Helvetica, Helvetica;
      }

      .st20, .st23 {
        fill: #555;
      }

      .st6 {
        stroke: #e0e0e0;
        stroke-width: .5px;
      }

      .st7, .st10 {
        stroke: #e78ac3;
      }

      .st8, .st12 {
        stroke: #66c2a5;
      }

      .st38, .st32 {
        fill: #8da0cb;
      }

      .st39, .st33 {
        fill: #ffd92f;
      }

      .st21, .st27, .st30 {
        fill: #2e7d32;
      }

      .st21, .st28 {
        font-size: 13px;
      }

      .st9, .st13 {
        stroke: #fc8d62;
      }

      .st22 {
        fill: #666;
      }

      .st23, .st24, .st27, .st29 {
        font-size: 9px;
      }

      .st24 {
        fill: #888;
      }

      .st25, .st40, .st26 {
        fill: #fff;
      }

      .st25, .st26 {
        opacity: .92;
        stroke-width: 1.2px;
      }

      .st25, .st16 {
        stroke: #d32f2f;
      }

      .st26, .st14 {
        stroke: #2e7d32;
      }

      .st34, .st41 {
        fill: #a6d854;
      }

      .st42, .st35 {
        fill: #e78ac3;
      }

      .st15 {
        stroke-dasharray: 8 4;
        stroke-width: 2px;
      }
    </style>
  </defs>
  <rect class="st40" width="960" height="480"/>
  <text class="st28" transform="translate(109.12 42)"><tspan x="0" y="0">Model 1a: Naive lm — Single Line (p ≈ 0.07, NS)</tspan></text>
  <text class="st21" transform="translate(536.52 42)"><tspan x="0" y="0">Model 1c: Random Intercept lmer — Per-Mouse Lines (p &lt; 0.001)</tspan></text>
  <rect class="st37" x="55" y="65" width="400" height="365"/>
  <rect class="st37" x="535" y="65" width="400" height="365"/>
  <line class="st6" x1="55" y1="413.4" x2="455" y2="413.4"/>
  <line class="st6" x1="535" y1="413.4" x2="935" y2="413.4"/>
  <text class="st22" transform="translate(37.88 417.4)"><tspan x="0" y="0">27</tspan></text>
  <line class="st6" x1="55" y1="347" x2="455" y2="347"/>
  <line class="st6" x1="535" y1="347" x2="935" y2="347"/>
  <text class="st22" transform="translate(37.88 351)"><tspan x="0" y="0">29</tspan></text>
  <line class="st6" x1="55" y1="280.7" x2="455" y2="280.7"/>
  <line class="st6" x1="535" y1="280.7" x2="935" y2="280.7"/>
  <text class="st22" transform="translate(37.88 284.7)"><tspan x="0" y="0">31</tspan></text>
  <line class="st6" x1="55" y1="214.3" x2="455" y2="214.3"/>
  <line class="st6" x1="535" y1="214.3" x2="935" y2="214.3"/>
  <text class="st22" transform="translate(37.88 218.3)"><tspan x="0" y="0">33</tspan></text>
  <line class="st6" x1="55" y1="148" x2="455" y2="148"/>
  <line class="st6" x1="535" y1="148" x2="935" y2="148"/>
  <text class="st22" transform="translate(37.88 152)"><tspan x="0" y="0">35</tspan></text>
  <line class="st6" x1="55" y1="81.6" x2="455" y2="81.6"/>
  <line class="st6" x1="535" y1="81.6" x2="935" y2="81.6"/>
  <text class="st22" transform="translate(37.88 85.6)"><tspan x="0" y="0">37</tspan></text>
  <line class="st6" x1="70.8" y1="65" x2="70.8" y2="430"/>
  <text class="st22" transform="translate(68.02 444)"><tspan x="0" y="0">0</tspan></text>
  <line class="st6" x1="550.8" y1="65" x2="550.8" y2="430"/>
  <text class="st22" transform="translate(548.02 444)"><tspan x="0" y="0">0</tspan></text>
  <line class="st6" x1="123.4" y1="65" x2="123.4" y2="430"/>
  <text class="st22" transform="translate(120.62 444)"><tspan x="0" y="0">1</tspan></text>
  <line class="st6" x1="603.4" y1="65" x2="603.4" y2="430"/>
  <text class="st22" transform="translate(600.62 444)"><tspan x="0" y="0">1</tspan></text>
  <line class="st6" x1="176.1" y1="65" x2="176.1" y2="430"/>
  <text class="st22" transform="translate(173.32 444)"><tspan x="0" y="0">2</tspan></text>
  <line class="st6" x1="656.1" y1="65" x2="656.1" y2="430"/>
  <text class="st22" transform="translate(653.32 444)"><tspan x="0" y="0">2</tspan></text>
  <line class="st6" x1="228.7" y1="65" x2="228.7" y2="430"/>
  <text class="st22" transform="translate(225.92 444)"><tspan x="0" y="0">3</tspan></text>
  <line class="st6" x1="708.7" y1="65" x2="708.7" y2="430"/>
  <text class="st22" transform="translate(705.92 444)"><tspan x="0" y="0">3</tspan></text>
  <line class="st6" x1="281.3" y1="65" x2="281.3" y2="430"/>
  <text class="st22" transform="translate(278.52 444)"><tspan x="0" y="0">4</tspan></text>
  <line class="st6" x1="761.3" y1="65" x2="761.3" y2="430"/>
  <text class="st22" transform="translate(758.52 444)"><tspan x="0" y="0">4</tspan></text>
  <line class="st6" x1="333.9" y1="65" x2="333.9" y2="430"/>
  <text class="st22" transform="translate(331.12 444)"><tspan x="0" y="0">5</tspan></text>
  <line class="st6" x1="813.9" y1="65" x2="813.9" y2="430"/>
  <text class="st22" transform="translate(811.12 444)"><tspan x="0" y="0">5</tspan></text>
  <line class="st6" x1="386.6" y1="65" x2="386.6" y2="430"/>
  <text class="st22" transform="translate(383.82 444)"><tspan x="0" y="0">6</tspan></text>
  <line class="st6" x1="866.6" y1="65" x2="866.6" y2="430"/>
  <text class="st22" transform="translate(863.82 444)"><tspan x="0" y="0">6</tspan></text>
  <line class="st6" x1="439.2" y1="65" x2="439.2" y2="430"/>
  <text class="st22" transform="translate(436.42 444)"><tspan x="0" y="0">7</tspan></text>
  <line class="st6" x1="919.2" y1="65" x2="919.2" y2="430"/>
  <text class="st22" transform="translate(916.42 444)"><tspan x="0" y="0">7</tspan></text>
  <text class="st20" transform="translate(15 272.77) rotate(-90)"><tspan x="0" y="0">Weight (g)</tspan></text>
  <text class="st20" transform="translate(466.04 472)"><tspan x="0" y="0">Week</tspan></text>
  <line class="st8" x1="60.8" y1="293" x2="60.8" y2="217.5"/>
  <line class="st8" x1="113.4" y1="324.5" x2="113.4" y2="227.8"/>
  <line class="st8" x1="166.1" y1="333.1" x2="166.1" y2="238"/>
  <line class="st8" x1="218.7" y1="315.9" x2="218.7" y2="248.3"/>
  <line class="st8" x1="271.3" y1="362.3" x2="271.3" y2="258.5"/>
  <line class="st8" x1="323.9" y1="369.9" x2="323.9" y2="268.8"/>
  <line class="st8" x1="376.6" y1="386.9" x2="376.6" y2="279"/>
  <line class="st8" x1="429.2" y1="385.5" x2="429.2" y2="289.3"/>
  <line class="st9" x1="64.8" y1="218.3" x2="64.8" y2="217.5"/>
  <line class="st9" x1="117.4" y1="220.6" x2="117.4" y2="227.8"/>
  <line class="st9" x1="170.1" y1="246.8" x2="170.1" y2="238"/>
  <line class="st9" x1="222.7" y1="246.5" x2="222.7" y2="248.3"/>
  <line class="st9" x1="275.3" y1="269.4" x2="275.3" y2="258.5"/>
  <line class="st9" x1="327.9" y1="261.8" x2="327.9" y2="268.8"/>
  <line class="st9" x1="380.6" y1="244.2" x2="380.6" y2="279"/>
  <line class="st9" x1="433.2" y1="250.8" x2="433.2" y2="289.3"/>
  <line class="st11" x1="68.8" y1="110.5" x2="68.8" y2="217.5"/>
  <line class="st11" x1="121.4" y1="112.1" x2="121.4" y2="227.8"/>
  <line class="st11" x1="174.1" y1="112.8" x2="174.1" y2="238"/>
  <line class="st11" x1="226.7" y1="174.8" x2="226.7" y2="248.3"/>
  <line class="st11" x1="279.3" y1="137.3" x2="279.3" y2="258.5"/>
  <line class="st11" x1="331.9" y1="140.7" x2="331.9" y2="268.8"/>
  <line class="st11" x1="384.6" y1="161.9" x2="384.6" y2="279"/>
  <line class="st11" x1="437.2" y1="156.6" x2="437.2" y2="289.3"/>
  <line class="st7" x1="72.8" y1="213" x2="72.8" y2="217.5"/>
  <line class="st7" x1="125.4" y1="240.5" x2="125.4" y2="227.8"/>
  <line class="st7" x1="178.1" y1="250.2" x2="178.1" y2="238"/>
  <line class="st7" x1="230.7" y1="226.6" x2="230.7" y2="248.3"/>
  <line class="st7" x1="283.3" y1="254.8" x2="283.3" y2="258.5"/>
  <line class="st7" x1="335.9" y1="288.3" x2="335.9" y2="268.8"/>
  <line class="st7" x1="388.6" y1="294.6" x2="388.6" y2="279"/>
  <line class="st7" x1="441.2" y1="292.6" x2="441.2" y2="289.3"/>
  <line class="st17" x1="76.8" y1="112.8" x2="76.8" y2="217.5"/>
  <line class="st17" x1="129.4" y1="137" x2="129.4" y2="227.8"/>
  <line class="st17" x1="182.1" y1="150.9" x2="182.1" y2="238"/>
  <line class="st17" x1="234.7" y1="148" x2="234.7" y2="248.3"/>
  <line class="st17" x1="287.3" y1="160.6" x2="287.3" y2="258.5"/>
  <line class="st17" x1="339.9" y1="186.1" x2="339.9" y2="268.8"/>
  <line class="st17" x1="392.6" y1="211" x2="392.6" y2="279"/>
  <line class="st17" x1="445.2" y1="210.7" x2="445.2" y2="289.3"/>
  <line class="st3" x1="80.8" y1="324.8" x2="80.8" y2="217.5"/>
  <line class="st3" x1="133.4" y1="357" x2="133.4" y2="227.8"/>
  <line class="st3" x1="186.1" y1="353.7" x2="186.1" y2="238"/>
  <line class="st3" x1="238.7" y1="343.7" x2="238.7" y2="248.3"/>
  <line class="st3" x1="291.3" y1="382.9" x2="291.3" y2="258.5"/>
  <line class="st3" x1="343.9" y1="394.2" x2="343.9" y2="268.8"/>
  <line class="st3" x1="396.6" y1="391.5" x2="396.6" y2="279"/>
  <line class="st3" x1="449.2" y1="402.1" x2="449.2" y2="289.3"/>
  <line class="st2" x1="70.8" y1="217.5" x2="439.2" y2="289.3"/>
  <circle class="st31" cx="60.8" cy="293" r="3.5"/>
  <circle class="st31" cx="113.4" cy="324.5" r="3.5"/>
  <circle class="st31" cx="166.1" cy="333.1" r="3.5"/>
  <circle class="st31" cx="218.7" cy="315.9" r="3.5"/>
  <circle class="st31" cx="271.3" cy="362.3" r="3.5"/>
  <circle class="st31" cx="323.9" cy="369.9" r="3.5"/>
  <circle class="st31" cx="376.6" cy="386.9" r="3.5"/>
  <circle class="st31" cx="429.2" cy="385.5" r="3.5"/>
  <circle class="st1" cx="64.8" cy="218.3" r="3.5"/>
  <circle class="st1" cx="117.4" cy="220.6" r="3.5"/>
  <circle class="st1" cx="170.1" cy="246.8" r="3.5"/>
  <circle class="st1" cx="222.7" cy="246.5" r="3.5"/>
  <circle class="st1" cx="275.3" cy="269.4" r="3.5"/>
  <circle class="st1" cx="327.9" cy="261.8" r="3.5"/>
  <circle class="st1" cx="380.6" cy="244.2" r="3.5"/>
  <circle class="st1" cx="433.2" cy="250.8" r="3.5"/>
  <circle class="st32" cx="68.8" cy="110.5" r="3.5"/>
  <circle class="st32" cx="121.4" cy="112.1" r="3.5"/>
  <circle class="st32" cx="174.1" cy="112.8" r="3.5"/>
  <circle class="st32" cx="226.7" cy="174.8" r="3.5"/>
  <circle class="st32" cx="279.3" cy="137.3" r="3.5"/>
  <circle class="st32" cx="331.9" cy="140.7" r="3.5"/>
  <circle class="st32" cx="384.6" cy="161.9" r="3.5"/>
  <circle class="st32" cx="437.2" cy="156.6" r="3.5"/>
  <circle class="st35" cx="72.8" cy="213" r="3.5"/>
  <circle class="st35" cx="125.4" cy="240.5" r="3.5"/>
  <circle class="st35" cx="178.1" cy="250.2" r="3.5"/>
  <circle class="st35" cx="230.7" cy="226.6" r="3.5"/>
  <circle class="st35" cx="283.3" cy="254.8" r="3.5"/>
  <circle class="st35" cx="335.9" cy="288.3" r="3.5"/>
  <circle class="st35" cx="388.6" cy="294.6" r="3.5"/>
  <circle class="st35" cx="441.2" cy="292.6" r="3.5"/>
  <circle class="st34" cx="76.8" cy="112.8" r="3.5"/>
  <circle class="st34" cx="129.4" cy="137" r="3.5"/>
  <circle class="st34" cx="182.1" cy="150.9" r="3.5"/>
  <circle class="st34" cx="234.7" cy="148" r="3.5"/>
  <circle class="st34" cx="287.3" cy="160.6" r="3.5"/>
  <circle class="st34" cx="339.9" cy="186.1" r="3.5"/>
  <circle class="st34" cx="392.6" cy="211" r="3.5"/>
  <circle class="st34" cx="445.2" cy="210.7" r="3.5"/>
  <circle class="st33" cx="80.8" cy="324.8" r="3.5"/>
  <circle class="st33" cx="133.4" cy="357" r="3.5"/>
  <circle class="st33" cx="186.1" cy="353.7" r="3.5"/>
  <circle class="st33" cx="238.7" cy="343.7" r="3.5"/>
  <circle class="st33" cx="291.3" cy="382.9" r="3.5"/>
  <circle class="st33" cx="343.9" cy="394.2" r="3.5"/>
  <circle class="st33" cx="396.6" cy="391.5" r="3.5"/>
  <circle class="st33" cx="449.2" cy="402.1" r="3.5"/>
  <line class="st12" x1="550.8" y1="310.2" x2="919.2" y2="381.9"/>
  <line class="st13" x1="550.8" y1="209" x2="919.2" y2="280.7"/>
  <line class="st5" x1="550.8" y1="102.8" x2="919.2" y2="174.6"/>
  <line class="st10" x1="550.8" y1="221.7" x2="919.2" y2="293.4"/>
  <line class="st4" x1="550.8" y1="129" x2="919.2" y2="200.8"/>
  <line class="st18" x1="550.8" y1="332.5" x2="919.2" y2="404.2"/>
  <line class="st8" x1="540.8" y1="293" x2="540.8" y2="310.2"/>
  <line class="st8" x1="593.4" y1="324.5" x2="593.4" y2="320.4"/>
  <line class="st8" x1="646.1" y1="333.1" x2="646.1" y2="330.7"/>
  <line class="st8" x1="698.7" y1="315.9" x2="698.7" y2="340.9"/>
  <line class="st8" x1="751.3" y1="362.3" x2="751.3" y2="351.2"/>
  <line class="st8" x1="803.9" y1="369.9" x2="803.9" y2="361.4"/>
  <line class="st8" x1="856.6" y1="386.9" x2="856.6" y2="371.7"/>
  <line class="st8" x1="909.2" y1="385.5" x2="909.2" y2="381.9"/>
  <line class="st9" x1="544.8" y1="218.3" x2="544.8" y2="209"/>
  <line class="st9" x1="597.4" y1="220.6" x2="597.4" y2="219.2"/>
  <line class="st9" x1="650.1" y1="246.8" x2="650.1" y2="229.5"/>
  <line class="st9" x1="702.7" y1="246.5" x2="702.7" y2="239.7"/>
  <line class="st9" x1="755.3" y1="269.4" x2="755.3" y2="250"/>
  <line class="st9" x1="807.9" y1="261.8" x2="807.9" y2="260.2"/>
  <line class="st9" x1="860.6" y1="244.2" x2="860.6" y2="270.5"/>
  <line class="st9" x1="913.2" y1="250.8" x2="913.2" y2="280.7"/>
  <line class="st11" x1="548.8" y1="110.5" x2="548.8" y2="102.8"/>
  <line class="st11" x1="601.4" y1="112.1" x2="601.4" y2="113.1"/>
  <line class="st11" x1="654.1" y1="112.8" x2="654.1" y2="123.3"/>
  <line class="st11" x1="706.7" y1="174.8" x2="706.7" y2="133.6"/>
  <line class="st11" x1="759.3" y1="137.3" x2="759.3" y2="143.8"/>
  <line class="st11" x1="811.9" y1="140.7" x2="811.9" y2="154.1"/>
  <line class="st11" x1="864.6" y1="161.9" x2="864.6" y2="164.3"/>
  <line class="st11" x1="917.2" y1="156.6" x2="917.2" y2="174.6"/>
  <line class="st7" x1="552.8" y1="213" x2="552.8" y2="221.7"/>
  <line class="st7" x1="605.4" y1="240.5" x2="605.4" y2="231.9"/>
  <line class="st7" x1="658.1" y1="250.2" x2="658.1" y2="242.2"/>
  <line class="st7" x1="710.7" y1="226.6" x2="710.7" y2="252.4"/>
  <line class="st7" x1="763.3" y1="254.8" x2="763.3" y2="262.7"/>
  <line class="st7" x1="815.9" y1="288.3" x2="815.9" y2="272.9"/>
  <line class="st7" x1="868.6" y1="294.6" x2="868.6" y2="283.2"/>
  <line class="st7" x1="921.2" y1="292.6" x2="921.2" y2="293.4"/>
  <line class="st17" x1="556.8" y1="112.8" x2="556.8" y2="129"/>
  <line class="st17" x1="609.4" y1="137" x2="609.4" y2="139.3"/>
  <line class="st17" x1="662.1" y1="150.9" x2="662.1" y2="149.5"/>
  <line class="st17" x1="714.7" y1="148" x2="714.7" y2="159.8"/>
  <line class="st17" x1="767.3" y1="160.6" x2="767.3" y2="170"/>
  <line class="st17" x1="819.9" y1="186.1" x2="819.9" y2="180.3"/>
  <line class="st17" x1="872.6" y1="211" x2="872.6" y2="190.5"/>
  <line class="st17" x1="925.2" y1="210.7" x2="925.2" y2="200.8"/>
  <line class="st3" x1="560.8" y1="324.8" x2="560.8" y2="332.5"/>
  <line class="st3" x1="613.4" y1="357" x2="613.4" y2="342.7"/>
  <line class="st3" x1="666.1" y1="353.7" x2="666.1" y2="353"/>
  <line class="st3" x1="718.7" y1="343.7" x2="718.7" y2="363.2"/>
  <line class="st3" x1="771.3" y1="382.9" x2="771.3" y2="373.5"/>
  <line class="st3" x1="823.9" y1="394.2" x2="823.9" y2="383.7"/>
  <line class="st3" x1="876.6" y1="391.5" x2="876.6" y2="394"/>
  <line class="st3" x1="929.2" y1="402.1" x2="929.2" y2="404.2"/>
  <line class="st15" x1="550.8" y1="217.5" x2="919.2" y2="289.3"/>
  <circle class="st31" cx="540.8" cy="293" r="3.5"/>
  <circle class="st31" cx="593.4" cy="324.5" r="3.5"/>
  <circle class="st31" cx="646.1" cy="333.1" r="3.5"/>
  <circle class="st31" cx="698.7" cy="315.9" r="3.5"/>
  <circle class="st31" cx="751.3" cy="362.3" r="3.5"/>
  <circle class="st31" cx="803.9" cy="369.9" r="3.5"/>
  <circle class="st31" cx="856.6" cy="386.9" r="3.5"/>
  <circle class="st31" cx="909.2" cy="385.5" r="3.5"/>
  <circle class="st1" cx="544.8" cy="218.3" r="3.5"/>
  <circle class="st1" cx="597.4" cy="220.6" r="3.5"/>
  <circle class="st1" cx="650.1" cy="246.8" r="3.5"/>
  <circle class="st1" cx="702.7" cy="246.5" r="3.5"/>
  <circle class="st1" cx="755.3" cy="269.4" r="3.5"/>
  <circle class="st1" cx="807.9" cy="261.8" r="3.5"/>
  <circle class="st1" cx="860.6" cy="244.2" r="3.5"/>
  <circle class="st1" cx="913.2" cy="250.8" r="3.5"/>
  <circle class="st32" cx="548.8" cy="110.5" r="3.5"/>
  <circle class="st32" cx="601.4" cy="112.1" r="3.5"/>
  <circle class="st32" cx="654.1" cy="112.8" r="3.5"/>
  <circle class="st32" cx="706.7" cy="174.8" r="3.5"/>
  <circle class="st32" cx="759.3" cy="137.3" r="3.5"/>
  <circle class="st32" cx="811.9" cy="140.7" r="3.5"/>
  <circle class="st32" cx="864.6" cy="161.9" r="3.5"/>
  <circle class="st32" cx="917.2" cy="156.6" r="3.5"/>
  <circle class="st35" cx="552.8" cy="213" r="3.5"/>
  <circle class="st35" cx="605.4" cy="240.5" r="3.5"/>
  <circle class="st35" cx="658.1" cy="250.2" r="3.5"/>
  <circle class="st35" cx="710.7" cy="226.6" r="3.5"/>
  <circle class="st35" cx="763.3" cy="254.8" r="3.5"/>
  <circle class="st35" cx="815.9" cy="288.3" r="3.5"/>
  <circle class="st35" cx="868.6" cy="294.6" r="3.5"/>
  <circle class="st35" cx="921.2" cy="292.6" r="3.5"/>
  <circle class="st34" cx="556.8" cy="112.8" r="3.5"/>
  <circle class="st34" cx="609.4" cy="137" r="3.5"/>
  <circle class="st34" cx="662.1" cy="150.9" r="3.5"/>
  <circle class="st34" cx="714.7" cy="148" r="3.5"/>
  <circle class="st34" cx="767.3" cy="160.6" r="3.5"/>
  <circle class="st34" cx="819.9" cy="186.1" r="3.5"/>
  <circle class="st34" cx="872.6" cy="211" r="3.5"/>
  <circle class="st34" cx="925.2" cy="210.7" r="3.5"/>
  <circle class="st33" cx="560.8" cy="324.8" r="3.5"/>
  <circle class="st33" cx="613.4" cy="357" r="3.5"/>
  <circle class="st33" cx="666.1" cy="353.7" r="3.5"/>
  <circle class="st33" cx="718.7" cy="343.7" r="3.5"/>
  <circle class="st33" cx="771.3" cy="382.9" r="3.5"/>
  <circle class="st33" cx="823.9" cy="394.2" r="3.5"/>
  <circle class="st33" cx="876.6" cy="391.5" r="3.5"/>
  <circle class="st33" cx="929.2" cy="402.1" r="3.5"/>
  <line class="st16" x1="463.2" y1="156.6" x2="463.2" y2="289.3"/>
  <text class="st29" transform="translate(467.2 222.9)"><tspan x="0" y="0">~4 g</tspan></text>
  <line class="st14" x1="925.2" y1="156.6" x2="925.2" y2="174.6"/>
  <text class="st27" transform="translate(929.2 165.6)"><tspan x="0" y="0">~0.5 g</tspan></text>
  <rect class="st25" x="295.6" y="70.19" width="155" height="36" rx="4" ry="4"/>
  <text class="st19" transform="translate(345.11 85.19)"><tspan x="0" y="0">SSR = 322.2</tspan></text>
  <text class="st24" transform="translate(317.95 97.1)"><tspan x="0" y="0">Residuals dominated by mice</tspan></text>
  <rect class="st26" x="774.8" y="70.19" width="155" height="36" rx="4" ry="4"/>
  <text class="st30" transform="translate(829.87 85.19)"><tspan x="0" y="0">SSR = 8.6</tspan></text>
  <text class="st24" transform="translate(788.39 98.19)"><tspan x="0" y="0">Residuals = measurement noise</tspan></text>
  <circle class="st36" cx="487.49" cy="362.5" r="4"/>
  <text class="st23" transform="translate(497.49 366)"><tspan x="0" y="0">M1</tspan></text>
  <circle class="st0" cx="487.49" cy="375.5" r="4"/>
  <text class="st23" transform="translate(497.49 379)"><tspan x="0" y="0">M2</tspan></text>
  <circle class="st38" cx="487.49" cy="388.5" r="4"/>
  <text class="st23" transform="translate(497.49 392)"><tspan x="0" y="0">M3</tspan></text>
  <circle class="st42" cx="487.49" cy="401.5" r="4"/>
  <text class="st23" transform="translate(497.49 405)"><tspan x="0" y="0">M4</tspan></text>
  <circle class="st41" cx="487.49" cy="414.5" r="4"/>
  <text class="st23" transform="translate(497.49 418)"><tspan x="0" y="0">M5</tspan></text>
  <circle class="st39" cx="487.49" cy="427.5" r="4"/>
  <text class="st23" transform="translate(497.49 431)"><tspan x="0" y="0">M6</tspan></text>
</svg>