<svg xmlns="http://www.w3.org/2000/svg" viewBox="0 0 600 500" font-family="Arial, Helvetica, sans-serif">
  <!-- Y-axis label -->
  <text x="22" y="250" text-anchor="middle" font-size="16" transform="rotate(-90,22,250)">Frequency</text>

  <!-- X-axis label -->
  <text x="330" y="480" text-anchor="middle" font-size="14">Y&#x0305;</text>
  <text x="342" y="483" text-anchor="middle" font-size="10">SM</text>
  <text x="358" y="480" text-anchor="middle" font-size="14"> &#x2212; Y&#x0305;</text>
  <text x="385" y="483" text-anchor="middle" font-size="10">DM</text>
  <text x="420" y="480" text-anchor="middle" font-size="14"> from randomized data sets</text>

  <!-- Axes -->
  <line x1="70" y1="440" x2="570" y2="440" stroke="black" stroke-width="1.5"/>
  <line x1="70" y1="440" x2="70" y2="30" stroke="black" stroke-width="1.5"/>

  <!-- Y-axis ticks and labels -->
  <line x1="65" y1="440" x2="70" y2="440" stroke="black" stroke-width="1"/>
  <text x="60" y="445" text-anchor="end" font-size="12">0</text>
  <line x1="65" y1="382" x2="70" y2="382" stroke="black" stroke-width="1"/>
  <text x="60" y="387" text-anchor="end" font-size="12">100</text>
  <line x1="65" y1="324" x2="70" y2="324" stroke="black" stroke-width="1"/>
  <text x="60" y="329" text-anchor="end" font-size="12">200</text>
  <line x1="65" y1="266" x2="70" y2="266" stroke="black" stroke-width="1"/>
  <text x="60" y="271" text-anchor="end" font-size="12">300</text>
  <line x1="65" y1="208" x2="70" y2="208" stroke="black" stroke-width="1"/>
  <text x="60" y="213" text-anchor="end" font-size="12">400</text>
  <line x1="65" y1="150" x2="70" y2="150" stroke="black" stroke-width="1"/>
  <text x="60" y="155" text-anchor="end" font-size="12">500</text>
  <line x1="65" y1="92" x2="70" y2="92" stroke="black" stroke-width="1"/>
  <text x="60" y="97" text-anchor="end" font-size="12">600</text>
  <line x1="65" y1="34" x2="70" y2="34" stroke="black" stroke-width="1"/>
  <text x="60" y="39" text-anchor="end" font-size="12">700</text>

  <!-- X-axis ticks and labels -->
  <line x1="110" y1="440" x2="110" y2="445" stroke="black" stroke-width="1"/>
  <text x="110" y="458" text-anchor="middle" font-size="12">-2</text>
  <line x1="230" y1="440" x2="230" y2="445" stroke="black" stroke-width="1"/>
  <text x="230" y="458" text-anchor="middle" font-size="12">-1</text>
  <line x1="350" y1="440" x2="350" y2="445" stroke="black" stroke-width="1"/>
  <text x="350" y="458" text-anchor="middle" font-size="12">0</text>
  <line x1="470" y1="440" x2="470" y2="445" stroke="black" stroke-width="1"/>
  <text x="470" y="458" text-anchor="middle" font-size="12">1</text>
  <line x1="560" y1="440" x2="560" y2="445" stroke="black" stroke-width="1"/>
  <text x="560" y="458" text-anchor="middle" font-size="12">2</text>

  <!-- Histogram bars (approximating the distribution) -->
  <!-- Red bars (extreme left, below -1.425) -->
  <rect x="98" y="433" width="18" height="7" fill="#CC0000" stroke="black" stroke-width="0.5"/>
  <rect x="116" y="430" width="18" height="10" fill="#CC0000" stroke="black" stroke-width="0.5"/>
  <rect x="134" y="420" width="18" height="20" fill="#CC0000" stroke="black" stroke-width="0.5"/>
  <rect x="152" y="410" width="18" height="30" fill="#CC0000" stroke="black" stroke-width="0.5"/>
  <rect x="170" y="392" width="18" height="48" fill="#CC0000" stroke="black" stroke-width="0.5"/>
  <rect x="188" y="385" width="18" height="55" fill="#CC0000" stroke="black" stroke-width="0.5"/>

  <!-- White bars (rest of distribution) -->
  <rect x="206" y="355" width="18" height="85" fill="white" stroke="black" stroke-width="0.5"/>
  <rect x="224" y="315" width="18" height="125" fill="white" stroke="black" stroke-width="0.5"/>
  <rect x="242" y="270" width="18" height="170" fill="white" stroke="black" stroke-width="0.5"/>
  <rect x="260" y="210" width="18" height="230" fill="white" stroke="black" stroke-width="0.5"/>
  <rect x="278" y="160" width="18" height="280" fill="white" stroke="black" stroke-width="0.5"/>
  <rect x="296" y="115" width="18" height="325" fill="white" stroke="black" stroke-width="0.5"/>
  <rect x="314" y="85" width="18" height="355" fill="white" stroke="black" stroke-width="0.5"/>
  <rect x="332" y="60" width="18" height="380" fill="white" stroke="black" stroke-width="0.5"/>
  <rect x="350" y="45" width="18" height="395" fill="white" stroke="black" stroke-width="0.5"/>
  <rect x="368" y="65" width="18" height="375" fill="white" stroke="black" stroke-width="0.5"/>
  <rect x="386" y="80" width="18" height="360" fill="white" stroke="black" stroke-width="0.5"/>
  <rect x="404" y="110" width="18" height="330" fill="white" stroke="black" stroke-width="0.5"/>
  <rect x="422" y="155" width="18" height="285" fill="white" stroke="black" stroke-width="0.5"/>
  <rect x="440" y="205" width="18" height="235" fill="white" stroke="black" stroke-width="0.5"/>
  <rect x="458" y="260" width="18" height="180" fill="white" stroke="black" stroke-width="0.5"/>
  <rect x="476" y="310" width="18" height="130" fill="white" stroke="black" stroke-width="0.5"/>
  <rect x="494" y="355" width="18" height="85" fill="white" stroke="black" stroke-width="0.5"/>
  <rect x="512" y="395" width="18" height="45" fill="white" stroke="black" stroke-width="0.5"/>
  <rect x="530" y="420" width="18" height="20" fill="white" stroke="black" stroke-width="0.5"/>
  <rect x="548" y="430" width="18" height="10" fill="white" stroke="black" stroke-width="0.5"/>

  <!-- Vertical line at observed value (-1.425) -->
  <line x1="195" y1="75" x2="195" y2="440" stroke="black" stroke-width="2.5"/>
  <text x="200" y="72" font-size="14" font-weight="bold">-1.425</text>
</svg>