<svg xmlns="http://www.w3.org/2000/svg" viewBox="0 0 650 400" font-family="Arial, Helvetica, sans-serif">
  <!-- Column headers -->
  <!-- Nonoxynol-9 spanning header -->
  <text x="310" y="35" text-anchor="middle" font-size="18" font-weight="bold">Nonoxynol-9</text>
  <line x1="230" y1="40" x2="400" y2="40" stroke="black" stroke-width="1.5"/>
  <!-- Placebo spanning header -->
  <text x="520" y="35" text-anchor="middle" font-size="18" font-weight="bold">Placebo</text>
  <line x1="430" y1="40" x2="610" y2="40" stroke="black" stroke-width="1.5"/>

  <!-- Sub-headers -->
  <text x="100" y="72" text-anchor="middle" font-size="16" font-weight="bold">Clinic</text>
  <text x="260" y="72" text-anchor="middle" font-size="16" font-style="italic" font-weight="bold">n</text>
  <text x="360" y="62" text-anchor="middle" font-size="16" font-weight="bold">Number</text>
  <text x="360" y="80" text-anchor="middle" font-size="16" font-weight="bold">infected</text>
  <text x="470" y="72" text-anchor="middle" font-size="16" font-style="italic" font-weight="bold">n</text>
  <text x="570" y="62" text-anchor="middle" font-size="16" font-weight="bold">Number</text>
  <text x="570" y="80" text-anchor="middle" font-size="16" font-weight="bold">infected</text>

  <!-- Horizontal rules -->
  <line x1="30" y1="45" x2="620" y2="45" stroke="black" stroke-width="2"/>
  <line x1="30" y1="85" x2="620" y2="85" stroke="black" stroke-width="2"/>

  <!-- Data rows -->
  <!-- Abidjan -->
  <text x="100" y="115" text-anchor="middle" font-size="16">Abidjan</text>
  <text x="260" y="115" text-anchor="middle" font-size="16">78</text>
  <text x="360" y="115" text-anchor="middle" font-size="16">0</text>
  <text x="470" y="115" text-anchor="middle" font-size="16">84</text>
  <text x="570" y="115" text-anchor="middle" font-size="16">5</text>

  <!-- Bangkok -->
  <text x="100" y="150" text-anchor="middle" font-size="16">Bangkok</text>
  <text x="260" y="150" text-anchor="middle" font-size="16">26</text>
  <text x="360" y="150" text-anchor="middle" font-size="16">0</text>
  <text x="470" y="150" text-anchor="middle" font-size="16">25</text>
  <text x="570" y="150" text-anchor="middle" font-size="16">0</text>

  <!-- Cotonou -->
  <text x="100" y="185" text-anchor="middle" font-size="16">Cotonou</text>
  <text x="260" y="185" text-anchor="middle" font-size="16">100</text>
  <text x="360" y="185" text-anchor="middle" font-size="16">12</text>
  <text x="470" y="185" text-anchor="middle" font-size="16">103</text>
  <text x="570" y="185" text-anchor="middle" font-size="16">10</text>

  <!-- Durban -->
  <text x="100" y="220" text-anchor="middle" font-size="16">Durban</text>
  <text x="260" y="220" text-anchor="middle" font-size="16">94</text>
  <text x="360" y="220" text-anchor="middle" font-size="16">42</text>
  <text x="470" y="220" text-anchor="middle" font-size="16">93</text>
  <text x="570" y="220" text-anchor="middle" font-size="16">30</text>

  <!-- Hat Yai 2 -->
  <text x="100" y="255" text-anchor="middle" font-size="16">Hat Yai 2</text>
  <text x="260" y="255" text-anchor="middle" font-size="16">22</text>
  <text x="360" y="255" text-anchor="middle" font-size="16">0</text>
  <text x="470" y="255" text-anchor="middle" font-size="16">25</text>
  <text x="570" y="255" text-anchor="middle" font-size="16">0</text>

  <!-- Hat Yai 3 -->
  <text x="100" y="290" text-anchor="middle" font-size="16">Hat Yai 3</text>
  <text x="260" y="290" text-anchor="middle" font-size="16">56</text>
  <text x="360" y="290" text-anchor="middle" font-size="16">5</text>
  <text x="470" y="290" text-anchor="middle" font-size="16">59</text>
  <text x="570" y="290" text-anchor="middle" font-size="16">0</text>

  <!-- Separator before totals -->
  <line x1="30" y1="305" x2="620" y2="305" stroke="black" stroke-width="1.5"/>

  <!-- Total row -->
  <text x="100" y="335" text-anchor="middle" font-size="16" font-weight="bold">Total</text>
  <text x="260" y="335" text-anchor="middle" font-size="16">376</text>
  <text x="360" y="335" text-anchor="middle" font-size="16">59</text>
  <text x="470" y="335" text-anchor="middle" font-size="16">389</text>
  <text x="570" y="335" text-anchor="middle" font-size="16">45</text>
</svg>