<svg xmlns="http://www.w3.org/2000/svg" viewBox="0 0 500 750" font-family="Arial, Helvetica, sans-serif">
  <style>
    .plot-label { font-size: 16px; font-weight: bold; text-anchor: middle; fill: #2B4C7E; }
    .point-label { font-size: 14px; font-weight: bold; fill: #2B4C7E; }
    .dot { fill: #4A6FA5; r: 3; }
    .fit-line { stroke: #2B4C7E; stroke-width: 2; fill: none; }
    .axis-line { stroke: #2B4C7E; stroke-width: 1.5; fill: none; }
  </style>

  <!-- Panel 1: No Relationship -->
  <g transform="translate(80, 20)">
    <!-- Axes -->
    <line x1="30" y1="10" x2="30" y2="190" class="axis-line"/>
    <line x1="30" y1="190" x2="330" y2="190" class="axis-line"/>
    <!-- Horizontal flat line -->
    <line x1="40" y1="100" x2="320" y2="100" class="fit-line"/>
    <!-- Scattered dots with no trend -->
    <circle cx="50" cy="60" class="dot"/>
    <circle cx="60" cy="130" class="dot"/>
    <circle cx="70" cy="85" class="dot"/>
    <circle cx="80" cy="155" class="dot"/>
    <circle cx="90" cy="45" class="dot"/>
    <circle cx="95" cy="110" class="dot"/>
    <circle cx="105" cy="75" class="dot"/>
    <circle cx="110" cy="140" class="dot"/>
    <circle cx="115" cy="50" class="dot"/>
    <circle cx="120" cy="170" class="dot"/>
    <circle cx="130" cy="90" class="dot"/>
    <circle cx="135" cy="30" class="dot"/>
    <circle cx="140" cy="120" class="dot"/>
    <circle cx="145" cy="65" class="dot"/>
    <circle cx="150" cy="160" class="dot"/>
    <circle cx="155" cy="100" class="dot"/>
    <circle cx="160" cy="40" class="dot"/>
    <circle cx="165" cy="145" class="dot"/>
    <circle cx="170" cy="80" class="dot"/>
    <circle cx="180" cy="115" class="dot"/>
    <circle cx="185" cy="55" class="dot"/>
    <circle cx="190" cy="170" class="dot"/>
    <circle cx="195" cy="35" class="dot"/>
    <circle cx="200" cy="130" class="dot"/>
    <circle cx="205" cy="70" class="dot"/>
    <circle cx="210" cy="150" class="dot"/>
    <circle cx="215" cy="95" class="dot"/>
    <circle cx="220" cy="45" class="dot"/>
    <circle cx="225" cy="125" class="dot"/>
    <circle cx="235" cy="160" class="dot"/>
    <circle cx="240" cy="55" class="dot"/>
    <circle cx="245" cy="110" class="dot"/>
    <circle cx="250" cy="80" class="dot"/>
    <circle cx="255" cy="140" class="dot"/>
    <circle cx="260" cy="35" class="dot"/>
    <circle cx="265" cy="100" class="dot"/>
    <circle cx="270" cy="165" class="dot"/>
    <circle cx="275" cy="60" class="dot"/>
    <circle cx="280" cy="120" class="dot"/>
    <circle cx="285" cy="85" class="dot"/>
    <circle cx="290" cy="150" class="dot"/>
    <circle cx="295" cy="40" class="dot"/>
    <circle cx="300" cy="105" class="dot"/>
    <circle cx="305" cy="135" class="dot"/>
    <circle cx="310" cy="70" class="dot"/>
    <!-- Label -->
    <text x="180" y="215" class="plot-label">No Relationship</text>
  </g>

  <!-- Panel 2: Positive and Linear -->
  <g transform="translate(80, 270)">
    <line x1="30" y1="10" x2="30" y2="190" class="axis-line"/>
    <line x1="30" y1="190" x2="330" y2="190" class="axis-line"/>
    <!-- Positive trend line -->
    <line x1="40" y1="175" x2="320" y2="30" class="fit-line"/>
    <!-- Labels A and B -->
    <text x="42" y="185" class="point-label">A</text>
    <text x="310" y="25" class="point-label">B</text>
    <!-- Dots scattered around positive trend -->
    <circle cx="55" cy="168" class="dot"/>
    <circle cx="65" cy="155" class="dot"/>
    <circle cx="70" cy="172" class="dot"/>
    <circle cx="80" cy="148" class="dot"/>
    <circle cx="90" cy="160" class="dot"/>
    <circle cx="95" cy="140" class="dot"/>
    <circle cx="105" cy="145" class="dot"/>
    <circle cx="110" cy="130" class="dot"/>
    <circle cx="120" cy="138" class="dot"/>
    <circle cx="125" cy="120" class="dot"/>
    <circle cx="135" cy="128" class="dot"/>
    <circle cx="140" cy="115" class="dot"/>
    <circle cx="150" cy="108" class="dot"/>
    <circle cx="155" cy="120" class="dot"/>
    <circle cx="165" cy="100" class="dot"/>
    <circle cx="170" cy="110" class="dot"/>
    <circle cx="180" cy="95" class="dot"/>
    <circle cx="190" cy="88" class="dot"/>
    <circle cx="195" cy="100" class="dot"/>
    <circle cx="205" cy="82" class="dot"/>
    <circle cx="215" cy="75" class="dot"/>
    <circle cx="220" cy="90" class="dot"/>
    <circle cx="230" cy="70" class="dot"/>
    <circle cx="240" cy="65" class="dot"/>
    <circle cx="245" cy="78" class="dot"/>
    <circle cx="255" cy="55" class="dot"/>
    <circle cx="265" cy="50" class="dot"/>
    <circle cx="270" cy="62" class="dot"/>
    <circle cx="280" cy="45" class="dot"/>
    <circle cx="290" cy="38" class="dot"/>
    <circle cx="300" cy="42" class="dot"/>
    <text x="180" y="215" class="plot-label">Positive and Linear</text>
  </g>

  <!-- Panel 3: Negative and Linear -->
  <g transform="translate(80, 520)">
    <line x1="30" y1="10" x2="30" y2="190" class="axis-line"/>
    <line x1="30" y1="190" x2="330" y2="190" class="axis-line"/>
    <!-- Negative trend line -->
    <line x1="40" y1="30" x2="320" y2="175" class="fit-line"/>
    <!-- Dots scattered around negative trend -->
    <circle cx="50" cy="25" class="dot"/>
    <circle cx="60" cy="40" class="dot"/>
    <circle cx="65" cy="30" class="dot"/>
    <circle cx="75" cy="50" class="dot"/>
    <circle cx="85" cy="42" class="dot"/>
    <circle cx="90" cy="55" class="dot"/>
    <circle cx="100" cy="65" class="dot"/>
    <circle cx="110" cy="58" class="dot"/>
    <circle cx="115" cy="72" class="dot"/>
    <circle cx="125" cy="68" class="dot"/>
    <circle cx="130" cy="82" class="dot"/>
    <circle cx="140" cy="78" class="dot"/>
    <circle cx="150" cy="90" class="dot"/>
    <circle cx="155" cy="100" class="dot"/>
    <circle cx="165" cy="95" class="dot"/>
    <circle cx="170" cy="108" class="dot"/>
    <circle cx="180" cy="102" class="dot"/>
    <circle cx="190" cy="115" class="dot"/>
    <circle cx="195" cy="110" class="dot"/>
    <circle cx="205" cy="125" class="dot"/>
    <circle cx="215" cy="120" class="dot"/>
    <circle cx="220" cy="132" class="dot"/>
    <circle cx="230" cy="128" class="dot"/>
    <circle cx="240" cy="140" class="dot"/>
    <circle cx="250" cy="145" class="dot"/>
    <circle cx="260" cy="150" class="dot"/>
    <circle cx="270" cy="155" class="dot"/>
    <circle cx="275" cy="162" class="dot"/>
    <circle cx="285" cy="160" class="dot"/>
    <circle cx="295" cy="168" class="dot"/>
    <circle cx="305" cy="172" class="dot"/>
    <text x="180" y="215" class="plot-label">Negative and Linear</text>
  </g>
</svg>