<svg xmlns="http://www.w3.org/2000/svg" viewBox="0 0 900 700" font-family="Arial, Helvetica, sans-serif">
  <style>
    .title { font-size: 22px; font-weight: bold; text-anchor: middle; }
    .axis-label { font-size: 14px; text-anchor: middle; }
    .stat-label { font-size: 13px; font-style: italic; }
    .dot { fill: #1a1a1a; }
    .axis-line { stroke: #000; stroke-width: 1.5; fill: none; }
    .tick-label { font-size: 11px; text-anchor: middle; }
    .tick-label-y { font-size: 11px; text-anchor: end; }
  </style>

  <!-- Panel A: positive correlation, cov=6.8, cor=0.85 -->
  <g transform="translate(30, 20)">
    <text x="200" y="20" class="title">A</text>
    <rect x="50" y="30" width="320" height="260" fill="none" stroke="#000" stroke-width="1.5"/>
    <!-- Axes labels -->
    <text x="210" y="325" class="axis-label">x</text>
    <text x="20" y="165" class="axis-label" transform="rotate(-90, 20, 165)">y</text>
    <!-- Tick marks and labels on x: 0,2,4,6,8,10,12 -->
    <text x="50" y="308" class="tick-label">0</text>
    <text x="103" y="308" class="tick-label">2</text>
    <text x="157" y="308" class="tick-label">4</text>
    <text x="210" y="308" class="tick-label">6</text>
    <text x="263" y="308" class="tick-label">8</text>
    <text x="317" y="308" class="tick-label">10</text>
    <text x="370" y="308" class="tick-label">12</text>
    <!-- Tick marks on y: 2,6,10 -->
    <text x="45" y="254" class="tick-label-y">2</text>
    <text x="45" y="152" class="tick-label-y">6</text>
    <text x="45" y="50" class="tick-label-y">10</text>
    <!-- Stats -->
    <text x="65" y="55" class="stat-label">cov = 6.8</text>
    <text x="65" y="73" class="stat-label">cor = 0.85</text>
    <!-- Data points: positive trend, x range 0-12, y range 1-10 -->
    <circle cx="80" cy="230" r="4" class="dot"/>
    <circle cx="90" cy="210" r="4" class="dot"/>
    <circle cx="105" cy="245" r="4" class="dot"/>
    <circle cx="115" cy="200" r="4" class="dot"/>
    <circle cx="120" cy="225" r="4" class="dot"/>
    <circle cx="130" cy="195" r="4" class="dot"/>
    <circle cx="140" cy="210" r="4" class="dot"/>
    <circle cx="150" cy="185" r="4" class="dot"/>
    <circle cx="155" cy="215" r="4" class="dot"/>
    <circle cx="160" cy="190" r="4" class="dot"/>
    <circle cx="170" cy="200" r="4" class="dot"/>
    <circle cx="175" cy="230" r="4" class="dot"/>
    <circle cx="185" cy="175" r="4" class="dot"/>
    <circle cx="195" cy="190" r="4" class="dot"/>
    <circle cx="200" cy="165" r="4" class="dot"/>
    <circle cx="210" cy="180" r="4" class="dot"/>
    <circle cx="220" cy="145" r="4" class="dot"/>
    <circle cx="230" cy="160" r="4" class="dot"/>
    <circle cx="240" cy="155" r="4" class="dot"/>
    <circle cx="250" cy="140" r="4" class="dot"/>
    <circle cx="260" cy="130" r="4" class="dot"/>
    <circle cx="270" cy="115" r="4" class="dot"/>
    <circle cx="275" cy="145" r="4" class="dot"/>
    <circle cx="285" cy="110" r="4" class="dot"/>
    <circle cx="300" cy="90" r="4" class="dot"/>
    <circle cx="310" cy="100" r="4" class="dot"/>
    <circle cx="315" cy="125" r="4" class="dot"/>
    <circle cx="330" cy="80" r="4" class="dot"/>
    <circle cx="340" cy="95" r="4" class="dot"/>
    <circle cx="350" cy="60" r="4" class="dot"/>
  </g>

  <!-- Panel B: positive correlation, cov=68, cor=0.85, x range 0-120 -->
  <g transform="translate(460, 20)">
    <text x="200" y="20" class="title">B</text>
    <rect x="50" y="30" width="320" height="260" fill="none" stroke="#000" stroke-width="1.5"/>
    <text x="210" y="325" class="axis-label">x</text>
    <text x="20" y="165" class="axis-label" transform="rotate(-90, 20, 165)">y</text>
    <text x="50" y="308" class="tick-label">0</text>
    <text x="103" y="308" class="tick-label">20</text>
    <text x="157" y="308" class="tick-label">40</text>
    <text x="210" y="308" class="tick-label">60</text>
    <text x="263" y="308" class="tick-label">80</text>
    <text x="317" y="308" class="tick-label">100</text>
    <text x="370" y="308" class="tick-label">120</text>
    <text x="45" y="254" class="tick-label-y">2</text>
    <text x="45" y="152" class="tick-label-y">6</text>
    <text x="45" y="50" class="tick-label-y">10</text>
    <text x="65" y="55" class="stat-label">cov = 68</text>
    <text x="65" y="73" class="stat-label">cor = 0.85</text>
    <!-- Same pattern as A but x scaled by 10 -->
    <circle cx="80" cy="230" r="4" class="dot"/>
    <circle cx="90" cy="210" r="4" class="dot"/>
    <circle cx="105" cy="245" r="4" class="dot"/>
    <circle cx="115" cy="200" r="4" class="dot"/>
    <circle cx="120" cy="225" r="4" class="dot"/>
    <circle cx="130" cy="195" r="4" class="dot"/>
    <circle cx="140" cy="210" r="4" class="dot"/>
    <circle cx="150" cy="185" r="4" class="dot"/>
    <circle cx="155" cy="215" r="4" class="dot"/>
    <circle cx="160" cy="190" r="4" class="dot"/>
    <circle cx="170" cy="200" r="4" class="dot"/>
    <circle cx="175" cy="230" r="4" class="dot"/>
    <circle cx="185" cy="175" r="4" class="dot"/>
    <circle cx="195" cy="190" r="4" class="dot"/>
    <circle cx="200" cy="165" r="4" class="dot"/>
    <circle cx="210" cy="180" r="4" class="dot"/>
    <circle cx="220" cy="145" r="4" class="dot"/>
    <circle cx="230" cy="160" r="4" class="dot"/>
    <circle cx="240" cy="155" r="4" class="dot"/>
    <circle cx="250" cy="140" r="4" class="dot"/>
    <circle cx="260" cy="130" r="4" class="dot"/>
    <circle cx="270" cy="115" r="4" class="dot"/>
    <circle cx="275" cy="145" r="4" class="dot"/>
    <circle cx="285" cy="110" r="4" class="dot"/>
    <circle cx="300" cy="90" r="4" class="dot"/>
    <circle cx="310" cy="100" r="4" class="dot"/>
    <circle cx="315" cy="125" r="4" class="dot"/>
    <circle cx="330" cy="80" r="4" class="dot"/>
    <circle cx="340" cy="95" r="4" class="dot"/>
    <circle cx="350" cy="60" r="4" class="dot"/>
  </g>

  <!-- Panel C: negative correlation, cov=-7.8, cor=-0.98 -->
  <g transform="translate(30, 370)">
    <text x="200" y="20" class="title">C</text>
    <rect x="50" y="30" width="320" height="260" fill="none" stroke="#000" stroke-width="1.5"/>
    <text x="210" y="325" class="axis-label">x</text>
    <text x="20" y="165" class="axis-label" transform="rotate(-90, 20, 165)">y</text>
    <text x="50" y="308" class="tick-label">0</text>
    <text x="103" y="308" class="tick-label">2</text>
    <text x="157" y="308" class="tick-label">4</text>
    <text x="210" y="308" class="tick-label">6</text>
    <text x="263" y="308" class="tick-label">8</text>
    <text x="317" y="308" class="tick-label">10</text>
    <text x="370" y="308" class="tick-label">12</text>
    <text x="45" y="254" class="tick-label-y">2</text>
    <text x="45" y="152" class="tick-label-y">6</text>
    <text x="45" y="50" class="tick-label-y">10</text>
    <text x="65" y="220" class="stat-label">cov = -7.8</text>
    <text x="65" y="238" class="stat-label">cor = -0.98</text>
    <!-- Strong negative: nearly perfect line from top-left to bottom-right -->
    <circle cx="60" cy="42" r="4" class="dot"/>
    <circle cx="70" cy="45" r="4" class="dot"/>
    <circle cx="85" cy="50" r="4" class="dot"/>
    <circle cx="95" cy="55" r="4" class="dot"/>
    <circle cx="100" cy="52" r="4" class="dot"/>
    <circle cx="110" cy="60" r="4" class="dot"/>
    <circle cx="118" cy="65" r="4" class="dot"/>
    <circle cx="125" cy="70" r="4" class="dot"/>
    <circle cx="135" cy="78" r="4" class="dot"/>
    <circle cx="148" cy="88" r="4" class="dot"/>
    <circle cx="155" cy="95" r="4" class="dot"/>
    <circle cx="165" cy="100" r="4" class="dot"/>
    <circle cx="175" cy="108" r="4" class="dot"/>
    <circle cx="185" cy="115" r="4" class="dot"/>
    <circle cx="195" cy="122" r="4" class="dot"/>
    <circle cx="205" cy="130" r="4" class="dot"/>
    <circle cx="218" cy="140" r="4" class="dot"/>
    <circle cx="228" cy="148" r="4" class="dot"/>
    <circle cx="240" cy="158" r="4" class="dot"/>
    <circle cx="248" cy="162" r="4" class="dot"/>
    <circle cx="258" cy="170" r="4" class="dot"/>
    <circle cx="268" cy="178" r="4" class="dot"/>
    <circle cx="278" cy="188" r="4" class="dot"/>
    <circle cx="290" cy="198" r="4" class="dot"/>
    <circle cx="300" cy="208" r="4" class="dot"/>
    <circle cx="310" cy="218" r="4" class="dot"/>
    <circle cx="320" cy="225" r="4" class="dot"/>
    <circle cx="335" cy="240" r="4" class="dot"/>
    <circle cx="345" cy="248" r="4" class="dot"/>
    <circle cx="360" cy="270" r="4" class="dot"/>
  </g>

  <!-- Panel D: no correlation, cov=0.23, cor=0.028 -->
  <g transform="translate(460, 370)">
    <text x="200" y="20" class="title">D</text>
    <rect x="50" y="30" width="320" height="260" fill="none" stroke="#000" stroke-width="1.5"/>
    <text x="210" y="325" class="axis-label">x</text>
    <text x="20" y="165" class="axis-label" transform="rotate(-90, 20, 165)">y</text>
    <text x="50" y="308" class="tick-label">0</text>
    <text x="103" y="308" class="tick-label">2</text>
    <text x="157" y="308" class="tick-label">4</text>
    <text x="210" y="308" class="tick-label">6</text>
    <text x="263" y="308" class="tick-label">8</text>
    <text x="317" y="308" class="tick-label">10</text>
    <text x="370" y="308" class="tick-label">12</text>
    <text x="45" y="254" class="tick-label-y">2</text>
    <text x="45" y="152" class="tick-label-y">6</text>
    <text x="45" y="50" class="tick-label-y">10</text>
    <text x="250" y="220" class="stat-label">cov = 0.23</text>
    <text x="250" y="238" class="stat-label">cor = 0.028</text>
    <!-- Random scatter -->
    <circle cx="80" cy="180" r="4" class="dot"/>
    <circle cx="90" cy="60" r="4" class="dot"/>
    <circle cx="100" cy="230" r="4" class="dot"/>
    <circle cx="110" cy="140" r="4" class="dot"/>
    <circle cx="120" cy="250" r="4" class="dot"/>
    <circle cx="130" cy="90" r="4" class="dot"/>
    <circle cx="140" cy="200" r="4" class="dot"/>
    <circle cx="155" cy="120" r="4" class="dot"/>
    <circle cx="160" cy="55" r="4" class="dot"/>
    <circle cx="170" cy="245" r="4" class="dot"/>
    <circle cx="180" cy="160" r="4" class="dot"/>
    <circle cx="185" cy="80" r="4" class="dot"/>
    <circle cx="195" cy="220" r="4" class="dot"/>
    <circle cx="200" cy="100" r="4" class="dot"/>
    <circle cx="210" cy="175" r="4" class="dot"/>
    <circle cx="220" cy="45" r="4" class="dot"/>
    <circle cx="225" cy="260" r="4" class="dot"/>
    <circle cx="235" cy="130" r="4" class="dot"/>
    <circle cx="245" cy="195" r="4" class="dot"/>
    <circle cx="255" cy="70" r="4" class="dot"/>
    <circle cx="265" cy="240" r="4" class="dot"/>
    <circle cx="275" cy="110" r="4" class="dot"/>
    <circle cx="285" cy="55" r="4" class="dot"/>
    <circle cx="295" cy="185" r="4" class="dot"/>
    <circle cx="305" cy="145" r="4" class="dot"/>
    <circle cx="315" cy="85" r="4" class="dot"/>
    <circle cx="325" cy="210" r="4" class="dot"/>
    <circle cx="340" cy="155" r="4" class="dot"/>
    <circle cx="350" cy="50" r="4" class="dot"/>
    <circle cx="360" cy="125" r="4" class="dot"/>
  </g>
</svg>