<svg xmlns="http://www.w3.org/2000/svg" viewBox="0 0 800 620" font-family="'Helvetica Neue', Helvetica, Arial, sans-serif">
  <rect width="800" height="620" fill="white"/>

  <!-- Title -->
  <text x="400" y="40" text-anchor="middle" font-size="30" font-weight="bold" fill="#222">Special files -- '<tspan font-style="italic">dot dot</tspan>'</text>

  <!-- Defs: folder with two red dots -->
  <defs>
    <g id="folder-dd2">
      <rect x="0" y="8" width="80" height="50" rx="3" fill="#c8c0b8" stroke="#a09888" stroke-width="1.5"/>
      <rect x="0" y="0" width="30" height="14" rx="3" fill="#c8c0b8" stroke="#a09888" stroke-width="1.5"/>
      <path d="M30,0 L38,8 L80,8" fill="none" stroke="#a09888" stroke-width="1.5"/>
      <circle cx="33" cy="52" r="5" fill="#e74c3c"/>
      <circle cx="50" cy="52" r="5" fill="#e74c3c"/>
    </g>
    <!-- Arrowhead marker -->
    <marker id="arrowhead" markerWidth="10" markerHeight="7" refX="10" refY="3.5" orient="auto">
      <polygon points="0 0, 10 3.5, 0 7" fill="#c0392b"/>
    </marker>
  </defs>

  <!-- Level 0: Root / -->
  <use href="#folder-dd2" x="360" y="65"/>
  <text x="400" y="102" text-anchor="middle" font-size="18" font-family="'Courier New', monospace" font-weight="bold" fill="#333">/</text>

  <!-- Tree lines -->
  <line x1="400" y1="123" x2="400" y2="145" stroke="#888" stroke-width="1.5" stroke-dasharray="6,4"/>
  <line x1="100" y1="145" x2="700" y2="145" stroke="#888" stroke-width="1.5" stroke-dasharray="6,4"/>
  <line x1="100" y1="145" x2="100" y2="190" stroke="#888" stroke-width="1.5" stroke-dasharray="6,4"/>
  <line x1="280" y1="145" x2="280" y2="190" stroke="#888" stroke-width="1.5" stroke-dasharray="6,4"/>
  <line x1="460" y1="145" x2="460" y2="190" stroke="#888" stroke-width="1.5" stroke-dasharray="6,4"/>
  <line x1="620" y1="145" x2="620" y2="190" stroke="#888" stroke-width="1.5" stroke-dasharray="6,4"/>

  <!-- Level 1 -->
  <use href="#folder-dd2" x="60" y="190"/>
  <text x="100" y="230" text-anchor="middle" font-size="16" font-family="'Courier New', monospace" font-weight="bold" fill="#333">root</text>

  <use href="#folder-dd2" x="240" y="190"/>
  <text x="280" y="230" text-anchor="middle" font-size="16" font-family="'Courier New', monospace" font-weight="bold" fill="#333">home</text>

  <use href="#folder-dd2" x="420" y="190"/>
  <text x="460" y="230" text-anchor="middle" font-size="16" font-family="'Courier New', monospace" font-weight="bold" fill="#333">usr</text>

  <use href="#folder-dd2" x="580" y="190"/>
  <text x="620" y="230" text-anchor="middle" font-size="16" font-family="'Courier New', monospace" font-weight="bold" fill="#333">bin</text>

  <text x="720" y="225" font-size="24" fill="#666">...</text>

  <!-- Lines to level 2 -->
  <line x1="280" y1="248" x2="280" y2="270" stroke="#888" stroke-width="1.5" stroke-dasharray="6,4"/>
  <line x1="100" y1="270" x2="620" y2="270" stroke="#888" stroke-width="1.5" stroke-dasharray="6,4"/>
  <line x1="100" y1="270" x2="100" y2="315" stroke="#888" stroke-width="1.5" stroke-dasharray="6,4"/>
  <line x1="280" y1="270" x2="280" y2="315" stroke="#888" stroke-width="1.5" stroke-dasharray="6,4"/>
  <line x1="460" y1="248" x2="460" y2="270" stroke="#888" stroke-width="1.5" stroke-dasharray="6,4"/>
  <line x1="460" y1="270" x2="460" y2="315" stroke="#888" stroke-width="1.5" stroke-dasharray="6,4"/>
  <line x1="620" y1="270" x2="620" y2="315" stroke="#888" stroke-width="1.5" stroke-dasharray="6,4"/>

  <!-- Level 2 -->
  <use href="#folder-dd2" x="60" y="315"/>
  <text x="100" y="355" text-anchor="middle" font-size="16" font-family="'Courier New', monospace" font-weight="bold" fill="#333">cresko</text>

  <use href="#folder-dd2" x="240" y="315"/>
  <text x="280" y="355" text-anchor="middle" font-size="16" font-family="'Courier New', monospace" font-weight="bold" fill="#333">catchen</text>

  <use href="#folder-dd2" x="420" y="315"/>
  <text x="460" y="355" text-anchor="middle" font-size="16" font-family="'Courier New', monospace" font-weight="bold" fill="#333">lib</text>

  <use href="#folder-dd2" x="580" y="315"/>
  <text x="620" y="355" text-anchor="middle" font-size="16" font-family="'Courier New', monospace" font-weight="bold" fill="#333">bin</text>

  <text x="720" y="350" font-size="24" fill="#666">...</text>

  <!-- Lines to level 3 -->
  <line x1="280" y1="373" x2="280" y2="395" stroke="#888" stroke-width="1.5" stroke-dasharray="6,4"/>
  <line x1="280" y1="395" x2="460" y2="395" stroke="#888" stroke-width="1.5" stroke-dasharray="6,4"/>
  <line x1="280" y1="395" x2="280" y2="440" stroke="#888" stroke-width="1.5" stroke-dasharray="6,4"/>
  <line x1="460" y1="395" x2="460" y2="440" stroke="#888" stroke-width="1.5" stroke-dasharray="6,4"/>

  <!-- Level 3 -->
  <use href="#folder-dd2" x="240" y="440"/>
  <text x="280" y="480" text-anchor="middle" font-size="16" font-family="'Courier New', monospace" font-weight="bold" fill="#333">working</text>

  <use href="#folder-dd2" x="420" y="440"/>
  <text x="460" y="480" text-anchor="middle" font-size="16" font-family="'Courier New', monospace" font-weight="bold" fill="#333">research</text>

  <text x="560" y="475" font-size="24" fill="#666">...</text>

  <!-- Red curved arrows showing .. navigation (child -> parent) -->
  <!-- working -> catchen -->
  <path d="M260,445 C220,420 220,370 260,345" fill="none" stroke="#c0392b" stroke-width="2.5" marker-end="url(#arrowhead)"/>

  <!-- research -> catchen -->
  <path d="M440,445 C420,420 340,370 310,345" fill="none" stroke="#c0392b" stroke-width="2.5" marker-end="url(#arrowhead)"/>

  <!-- catchen -> home -->
  <path d="M260,320 C220,290 220,250 260,228" fill="none" stroke="#c0392b" stroke-width="2.5" marker-end="url(#arrowhead)"/>

  <!-- cresko -> home -->
  <path d="M80,320 C60,290 160,250 255,225" fill="none" stroke="#c0392b" stroke-width="2.5" marker-end="url(#arrowhead)"/>

  <!-- lib -> usr -->
  <path d="M440,320 C420,290 420,250 440,228" fill="none" stroke="#c0392b" stroke-width="2.5" marker-end="url(#arrowhead)"/>

  <!-- bin (L2) -> usr -->
  <path d="M600,320 C580,290 520,260 480,228" fill="none" stroke="#c0392b" stroke-width="2.5" marker-end="url(#arrowhead)"/>

  <!-- root -> / -->
  <path d="M80,195 C60,170 250,120 370,105" fill="none" stroke="#c0392b" stroke-width="2.5" marker-end="url(#arrowhead)"/>

  <!-- home -> / -->
  <path d="M280,195 C280,165 340,130 380,105" fill="none" stroke="#c0392b" stroke-width="2.5" marker-end="url(#arrowhead)"/>

  <!-- usr -> / -->
  <path d="M460,195 C460,165 430,130 410,105" fill="none" stroke="#c0392b" stroke-width="2.5" marker-end="url(#arrowhead)"/>

  <!-- bin (L1) -> / -->
  <path d="M620,195 C600,170 500,130 420,105" fill="none" stroke="#c0392b" stroke-width="2.5" marker-end="url(#arrowhead)"/>

  <!-- Explanation -->
  <text x="400" y="570" text-anchor="middle" font-size="20" fill="#555">'<tspan font-weight="bold" fill="#e74c3c">..</tspan>' (dot dot) always points to the <tspan font-weight="bold">parent</tspan> directory</text>
</svg>